<?xml version="1.0" ?>
<!-- Uploaded to: SVG Repo, www.svgrepo.com, Generator: SVG Repo Mixer Tools -->
<svg width="800px" height="800px" viewBox="0 0 128 128" version="1.1" xml:space="preserve" xmlns="http://www.w3.org/2000/svg" xmlns:xlink="http://www.w3.org/1999/xlink">
<style type="text/css">
	.st0{fill:#69A401;}
	.st1{fill:#EFE691;}
	.st2{fill:#B20000;}
	.st3{fill:#DF1801;}
	.st4{fill:#F40603;}
	.st5{fill:#FFEEEE;}
	.st6{fill:#847B3C;}
	.st7{fill:#CEB600;}
	.st8{fill:#F8CD02;}
	.st9{fill:#F7C800;}
	.st10{fill:#F6E8B9;}
	.st11{fill:#F6E9CA;}
	.st12{fill:#CF8A11;}
	.st13{fill:#286F0D;}
	.st14{fill:#63271D;}
	.st15{fill:#EB8102;}
	.st16{fill:#E37303;}
	.st17{fill:#D97102;}
	.st18{fill:#BF6302;}
	.st19{fill:#EA9735;}
	.st20{fill:#3E1A01;}
	.st21{fill:#C96A0A;}
	.st22{fill:#CE2335;}
	.st23{fill:#C0242D;}
	.st24{fill:#BA1A23;}
	.st25{fill:#F9DCC7;}
	.st26{fill:#DBE2CE;}
	.st27{fill:#7D4B12;}
	.st28{fill:#75480C;}
	.st29{fill:#66410C;}
	.st30{fill:#88550D;}
	.st31{fill:#FFFEE9;}
	.st32{fill:#9B9F1A;}
	.st33{fill:#F6E177;}
	.st34{fill:#443A00;}
	.st35{fill:#305209;}
	.st36{fill:#7F7C04;}
	.st37{fill:#BAB424;}
	.st38{fill:#F7CF43;}
	.st39{fill:#DE940E;}
	.st40{fill:#5F570A;}
	.st41{fill:#175424;}
	.st42{fill:#215B25;}
	.st43{fill:#1B5020;}
	.st44{fill:#C0F9C0;}
	.st45{fill:#F3DA78;}
	.st46{fill:#BC441C;}
	.st47{fill:#148E2E;}
	.st48{fill:#283767;}
	.st49{fill:#425285;}
	.st50{fill:#CFDFFF;}
	.st51{fill:#1F2C55;}
	.st52{fill:#776220;}
	.st53{fill:#90236B;}
	.st54{fill:#5D1A47;}
	.st55{fill:#99499A;}
	.st56{fill:#FCCAFA;}
	.st57{fill:#917C31;}
	.st58{fill:#F4C435;}
	.st59{fill:#F1BC02;}
	.st60{fill:#F0B102;}
	.st61{fill:#F1F7BA;}
	.st62{fill:#E3DCB9;}
	.st63{fill:#BD6800;}
	.st64{fill:#E19704;}
	.st65{fill:#B2CA2B;}
	.st66{fill:#AFC20F;}
	.st67{fill:#B9CB00;}
	.st68{fill:#E5F392;}
	.st69{fill:#F78202;}
	.st70{fill:#F79613;}
	.st71{fill:#331F07;}
	.st72{fill:#402B16;}
	.st73{fill:#669404;}
	.st74{fill:#F58E13;}
	.st75{fill:#D87117;}
	.st76{fill:#216604;}
	.st77{fill:#286D08;}
	.st78{fill:#C8C625;}
	.st79{fill:#2C441F;}
	.st80{fill:#F1E6BF;}
	.st81{fill:#F2BE2E;}
	.st82{fill:#BF8F33;}
	.st83{fill:#568804;}
	.st84{fill:#669614;}
	.st85{fill:#688E0C;}
	.st86{fill:#4C7005;}
	.st87{fill:#A0CA49;}
	.st88{fill:#99BD70;}
	.st89{fill:#78AA25;}
	.st90{fill:#4B7C23;}
	.st91{fill:#EADBC8;}
	.st92{fill:#F0D5B0;}
	.st93{fill:#DF2B2B;}
	.st94{fill:#D1262C;}
	.st95{fill:#B7252C;}
	.st96{fill:#46670C;}
	.st97{fill:#F49D5B;}
	.st98{fill:#F57A55;}
	.st99{fill:#F1C3A7;}
	.st100{fill:#CC0917;}
	.st101{fill:#DC1035;}
	.st102{fill:#9BAC0F;}
	.st103{fill:#667A1D;}
	.st104{fill:#7A9D18;}
	.st105{fill:#F6F7E6;}
	.st106{fill:#F0194D;}
	.st107{fill:#362420;}
	.st108{fill:#530618;}
	.st109{fill:#44041A;}
	.st110{fill:#490419;}
	.st111{fill:#F8A459;}
	.st112{fill:#871B22;}
	.st113{fill:#600613;}
	.st114{fill:#F8C790;}
	.st115{fill:#447832;}
	.st116{fill:#7C473D;}
	.st117{fill:#441432;}
	.st118{fill:#51163F;}
	.st119{fill:#5B1A41;}
	.st120{fill:#FCEBF9;}
	.st121{fill:#ECE5CE;}
	.st122{fill:#BC3E2C;}
	.st123{fill:#A60F26;}
	.st124{fill:#C61632;}
	.st125{fill:#BD1331;}
	.st126{fill:#F8B772;}
	.st127{fill:#F7DDAC;}
	.st128{fill:#850E11;}
	.st129{fill:#191200;}
	.st130{fill:#553D2D;}
	.st131{fill:#F9E2D2;}
	.st132{fill:#CA8937;}
	.st133{fill:#462D16;}
	.st134{fill:#6D8916;}
	.st135{fill:#96B54E;}
	.st136{fill:#E3E2DE;}
	.st137{fill:#261811;}
	.st138{fill:#525C11;}
	.st139{fill:#14581E;}
	.st140{fill:#3D7712;}
	.st141{fill:#9BC148;}
	.st142{fill:#E22434;}
	.st143{fill:#C6DD9E;}
	.st144{fill:#F89A07;}
	.st145{fill:#F7A410;}
	.st146{fill:#F8AB19;}
	.st147{fill:#F7B81C;}
	.st148{fill:#E5870A;}
	.st149{fill:#97A304;}
	.st150{fill:#A88C5C;}
	.st151{fill:#ADC21E;}
	.st152{fill:#A3BA0B;}
	.st153{fill:#8D9E08;}
	.st154{fill:#E0DAB9;}
	.st155{fill:#684219;}
	.st156{fill:#777F05;}
	.st157{fill:#F2E9C4;}
	.st158{fill:#CBB465;}
	.st159{fill:#FFF5CA;}
	.st160{fill:#E52828;}
	.st161{fill:#F87302;}
	.st162{fill:#FF7B22;}
	.st163{fill:#FC7F10;}
	.st164{fill:#F8A200;}
	.st165{fill:#F8DC91;}
	.st166{fill:#FFFFFF;}
	.st167{fill:#F5D7D5;}
	.st168{fill:#EDA07A;}
	.st169{fill:#FCBEBE;}
	.st170{fill:#EAD991;}
	.st171{fill:#582612;}
</style>
<g id="_x33_0_Mulberry"/>
<g id="_x32_9_Star_Fruit"/>
<g id="_x32_8_Apricot"/>
<g id="_x32_7_Litchi"/>
<g id="_x32_6_Kiwi"/>
<g id="_x32_5_Jackfruit"/>
<g id="_x32_4_Avacado"/>
<g id="_x32_3_Blueberry">
<g id="XMLID_1140_">
<path class="st47" d="M72.515,83.259c0.1-1.079,1.927-17.609,16.987-25.086    c11.655-5.787,26.301-3.7,36.498,5.352c-2.935,1.781-7.262,4.539-12.247,8.248c-12.094,8.998-14.825,13.744-21.62,15.441    C87.939,88.261,81.582,88.3,72.515,83.259z" id="XMLID_1149_"/>
<path class="st47" d="M55.485,83.259c-0.1-1.079-1.927-17.609-16.987-25.086    C26.843,52.386,12.197,54.473,2,63.525c2.935,1.781,7.262,4.539,12.247,8.248c12.094,8.998,14.825,13.744,21.62,15.441    C40.061,88.261,46.418,88.3,55.485,83.259z" id="XMLID_1148_"/>
<g id="XMLID_1141_">
<g id="XMLID_708_">
<ellipse class="st48" cx="47.64" cy="51.751" id="XMLID_1147_" rx="17.394" ry="19.704"/>
<path class="st49" d="M40.579,51.751c0-8.844,5.144-16.327,12.227-18.82c-1.632-0.574-3.368-0.884-5.167-0.884      c-9.606,0-17.394,8.822-17.394,19.704c0,10.882,7.787,19.704,17.394,19.704c1.799,0,3.534-0.31,5.167-0.884      C45.723,68.078,40.579,60.595,40.579,51.751z" id="XMLID_1981_"/>
<path class="st50" d="M40.521,55.289c-0.922,0-1.752-0.642-1.954-1.58c-0.356-1.661-0.538-3.377-0.538-5.101      c0-2.387,0.344-4.731,1.021-6.971c0.319-1.058,1.438-1.656,2.493-1.335c1.058,0.319,1.655,1.437,1.335,2.493      c-0.563,1.863-0.85,3.819-0.85,5.813c0,1.441,0.151,2.875,0.449,4.261c0.232,1.08-0.456,2.144-1.536,2.375      C40.802,55.274,40.661,55.289,40.521,55.289z"/>
</g>
<g id="XMLID_709_">
<ellipse class="st48" cx="79.327" cy="50.704" id="XMLID_1145_" rx="17.394" ry="19.704"/>
<path class="st49" d="M72.267,50.704c0-8.844,5.144-16.327,12.227-18.82C82.861,31.31,81.126,31,79.327,31      c-9.606,0-17.394,8.822-17.394,19.704c0,10.882,7.787,19.704,17.394,19.704c1.799,0,3.534-0.31,5.167-0.884      C77.41,67.031,72.267,59.548,72.267,50.704z" id="XMLID_715_"/>
<path class="st50" d="M72.209,57.384c-0.923,0-1.752-0.642-1.953-1.58c-0.357-1.664-0.539-3.38-0.539-5.1      c0-2.384,0.344-4.729,1.022-6.972c0.319-1.059,1.437-1.655,2.493-1.335c1.058,0.319,1.655,1.436,1.335,2.493      c-0.564,1.866-0.851,3.822-0.851,5.813c0,1.438,0.151,2.871,0.449,4.26c0.232,1.08-0.455,2.144-1.535,2.375      C72.489,57.369,72.349,57.384,72.209,57.384z"/>
</g>
<g id="XMLID_716_">
<ellipse class="st51" cx="64" cy="77.296" id="XMLID_1143_" rx="17.394" ry="19.704"/>
<path class="st48" d="M56.94,77.296c0-8.844,5.144-16.327,12.227-18.82c-1.632-0.574-3.368-0.884-5.167-0.884      c-9.606,0-17.394,8.822-17.394,19.704S54.394,97,64,97c1.799,0,3.534-0.31,5.167-0.884C62.083,93.623,56.94,86.14,56.94,77.296z      " id="XMLID_717_"/>
<path class="st50" d="M56.882,83.977c-0.922,0-1.752-0.642-1.954-1.58c-0.357-1.662-0.538-3.379-0.538-5.101      c0-2.385,0.344-4.73,1.022-6.971c0.319-1.058,1.436-1.657,2.493-1.335c1.058,0.319,1.655,1.437,1.335,2.493      c-0.564,1.864-0.85,3.82-0.85,5.813c0,1.44,0.151,2.874,0.449,4.261c0.232,1.08-0.456,2.144-1.536,2.375      C57.162,83.962,57.021,83.977,56.882,83.977z"/>
</g>
</g>
</g>
</g>
<g id="_x32_2_Purple_Grapes"/>
<g id="_x32_1_Melon"/>
<g id="_x32_0_Green_Grapes"/>
<g id="_x31_9_Papaya"/>
<g id="_x31_8_Pineapple"/>
<g id="_x31_7_Banana"/>
<g id="_x31_6_Tender_Coconut"/>
<g id="_x31_5_Strawberry"/>
<g id="_x31_4_Dragon_Fruit"/>
<g id="_x31_3_Plum"/>
<g id="_x31_2_Fig"/>
<g id="_x31_1_Peach"/>
<g id="_x31_0_Cherry"/>
<g id="_x30_9_Sapota"/>
<g id="_x30_8_Custard_Apple"/>
<g id="_x30_7_Watermelon"/>
<g id="_x30_6_Mango"/>
<g id="_x30_5_Pear"/>
<g id="_x30_4_Guava"/>
<g id="_x30_3_Pomegranate"/>
<g id="_x30_2_Orange"/>
<g id="_x30_1_Apple"/>
</svg>